# xmcd
#
# Track frame offsets: 
#        150
#        33990
#        48447
#        81007
#        100310
#        141490
#        181707
#        238690
#        273362
#        305657
#        316137
#        324897
#        340660
#
# Disc length: 4674 seconds
#
# Revision: 2
# Processed by: cddbd v1.5.2PL0 Copyright (c) Steve Scherf et al.
# Submitted via: ExactAudioCopy v0.99pb3
#
DISCID=aa12400d
DTITLE=Various Artist - Sibelius- Tone Poems and Songs Disc 1
DYEAR=2004
DGENRE=Classical
TTITLE0=Scottish National Orchestra - Sir Alexander Gibson/Karelia Ove
TTITLE0=rture, Op.10
TTITLE1=Wiener Philharmoniker - Sir Malcolm Sargent/Karelia Suite, Op.
TTITLE1=11 - I: Intermezzo
TTITLE2=Wiener Philharmoniker - Sir Malcolm Sargent/Karelia Suite, Op.
TTITLE2=11 - II: Ballade
TTITLE3=Wiener Philharmoniker - Sir Malcolm Sargent/Karelia Suite, Op.
TTITLE3=11 - III: Alla marcia
TTITLE4=Wiener Philharmoniker - Sir Malcolm Sargent/Swan of Tuonela, O
TTITLE4=p.22 No.2
TTITLE5=Wiener Philharmoniker - Sir Malcolm Sargent/Finlandia, Op.26
TTITLE6=BBC Symphony Orchestra - Sir Malcolm Sargent/Pohjola's Daughte
TTITLE6=r, Op.49
TTITLE7=Scottish National Orchestra - Sir Alexander Gibson/The Bard, O
TTITLE7=p.64
TTITLE8=Scottish National Orchestra - Sir Alexander Gibson/Festivo, Op
TTITLE8=25 No.3
TTITLE9=Siv Wennbert - Geoffey Parsons/The First Kiss, Op.37 No.1
TTITLE10=Siv Wennbert - Geoffey Parsons/Spring is Flying, Op.13 No.4
TTITLE11=Siv Wennbert - Geoffey Parsons/The Tryst, Op.37 No.5
TTITLE12=Siv Wennbert - Geoffey Parsons/Black Roses, Op.36 No.1
EXTD=
EXTT0=
EXTT1=
EXTT2=
EXTT3=
EXTT4=
EXTT5=
EXTT6=
EXTT7=
EXTT8=
EXTT9=
EXTT10=
EXTT11=
EXTT12=
PLAYORDER=
